DATE NIGHT 2010 R5 XviD

Format : AVI
Format/Info : Audio Video Interleave
File size : 546 MiB
Duration : 1h 24mn
Overall bit rate : 907 Kbps
Writing application : MEncoder SVN-r29352(20090610-gcc4.3.3)
Writing library : MPlayer

Video
ID : 0
Format : MPEG-4 Visual
Format profile : AdvancedSimple@L5
Format settings, BVOP : Yes
Format settings, QPel : No
Format settings, GMC : No warppoints
Format settings, Matrix : Default (H.263)
Codec ID : XVID
Codec ID/Hint : XviD
Duration : 1h 24mn
Bit rate : 767 Kbps
Width : 640 pixels
Height : 360 pixels
Display aspect ratio : 16:9
Frame rate : 25.000 fps
Resolution : 24 bits
Colorimetry : 4:2:0
Scan type : Progressive
Bits/(Pixel*Frame) : 0.133
Stream size : 462 MiB (85%)
Writing library : XviD 1.2.1 (UTC 2008-12-04)

Audio
ID : 1
Format : MPEG Audio
Format version : Version 1
Format profile : Layer 3
Codec ID : 55
Codec ID/Hint : MP3
Duration : 1h 24mn
Bit rate mode : Constant
Bit rate : 128 Kbps
Channel(s) : 2 channels
Sampling rate : 44.1 KHz
Resolution : 16 bits
Video delay : 40ms
Stream size : 77.1 MiB (14%)
Alignment : Aligned on interleaves
Interleave, duration : 26 ms (0.65 video frame)
Interleave, preload duration : 522 ms
Writing library : LAME3.98

Phil and Claire Foster (Steve Carell and Tina Fey) are a married couple from New Jersey with three children whose domestic life has become routine. Phil is a tax lawyer while Claire is a realtor. They have a weekly "date night" at a local steakhouse followed by a movie, but it is just as routine as everything else in their marriage. They learn that their best friends, Brad (Mark Ruffalo) and Haley (Kristen Wiig), are getting a divorce. 
http://www.imdb.com/title/tt1279935/

PLEASE SEED AND ENJOY THANKS

screen shots 
http://img809.imageshack.us/img809/8248/datenitexvidviceavithum.jpg